<svg xmlns="http://www.w3.org/2000/svg" version="1.1" xmlns:xlink="http://www.w3.org/1999/xlink" xmlns:svgjs="http://svgjs.com/svgjs" width="512" height="512" x="0" y="0" viewBox="0 0 512 512" style="enable-background:new 0 0 512 512" xml:space="preserve" class=""><g><g xmlns="http://www.w3.org/2000/svg"><g><path d="m431.661 507.282h-351.125c-1.024 0-1.854-.83-1.854-1.854v-497.302c0-1.024.83-1.854 1.854-1.854h351.125c1.024 0 1.854.83 1.854 1.854v497.301c.001 1.025-.829 1.855-1.854 1.855z" fill="#ddf0fc" data-original="#ddf0fc" class=""></path></g><g><g fill="#258dcd"><path d="m123.119 491.335 15.99 15.992h8.88l-20.431-20.431z" fill="#dfde39" data-original="#258dcd" class=""></path><path d="m103.752 463.09 22.037-22.037-4.433-4.433-22.037 22.037-20.237-20.237v8.878l15.797 15.797-13.016 13.016c.75 2.143 1.653 4.184 2.696 6.17l14.753-14.753 22.043 22.043 4.439-4.439z" fill="#dfde39" data-original="#258dcd" class=""></path><path d="m204.292 463.09 22.033-22.034-4.433-4.433-22.034 22.033-22.03-22.03-4.433 4.433 22.03 22.031-22.035 22.035 4.433 4.433 22.035-22.035 22.043 22.042 4.433-4.433z" fill="#dfde39" data-original="#258dcd" class=""></path><path d="m223.665 491.329 15.998 15.998h8.866l-20.431-20.431z" fill="#dfde39" data-original="#258dcd" class=""></path><path d="m176.064 434.862-22.042-22.042 22.033-22.034-4.433-4.433-22.033 22.034-22.031-22.031-4.433 4.433 22.03 22.031-22.036 22.036 4.433 4.433 22.037-22.036 22.042 22.043z" fill="#dfde39" data-original="#258dcd" class=""></path><path d="m121.361 389.026 4.433-4.433-22.042-22.043 22.033-22.034-4.433-4.433-22.033 22.034-20.237-20.237v8.866l15.804 15.804-15.804 15.803v8.866l20.237-20.236z" fill="#dfde39" data-original="#258dcd" class=""></path><path d="m121.361 288.486 4.433-4.433-22.042-22.043 22.032-22.032-4.433-4.433-22.032 22.032-20.237-20.237v8.866l15.804 15.804-15.804 15.803v8.866l20.237-20.236z" fill="#dfde39" data-original="#258dcd" class=""></path><path d="m304.831 463.09 22.036-22.036-4.434-4.433-22.035 22.035-22.03-22.03-4.433 4.433 22.03 22.031-22.038 22.038 4.433 4.433 22.038-22.038 22.04 22.039 4.433-4.433z" fill="#dfde39" data-original="#258dcd" class=""></path><path d="m324.202 491.326 16 16.001h8.867l-20.434-20.434z" fill="#dfde39" data-original="#258dcd" class=""></path><path d="m276.604 434.862-22.043-22.042 22.034-22.034-4.433-4.433-22.034 22.034-22.03-22.031-4.433 4.433 22.03 22.031-22.039 22.039 4.433 4.433 22.039-22.039 22.043 22.043z" fill="#dfde39" data-original="#258dcd" class=""></path><path d="m377.141 434.859-22.04-22.039 22.035-22.036-4.433-4.433-22.035 22.036-22.03-22.031-4.433 4.433 22.03 22.031-22.038 22.038 4.433 4.433 22.038-22.038 22.04 22.039z" fill="#dfde39" data-original="#258dcd" class=""></path><path d="m121.361 187.946 4.433-4.433-22.042-22.043 22.032-22.032-4.433-4.433-22.032 22.032-20.237-20.237v8.867l15.804 15.803-15.804 15.803v8.867l20.237-20.237z" fill="#dfde39" data-original="#258dcd" class=""></path><path d="m424.741 390.786 9.174 9.174v-8.866l-4.741-4.741z" fill="#dfde39" data-original="#258dcd" class=""></path><path d="m121.361 87.406 4.433-4.433-22.042-22.043 22.032-22.032-4.433-4.433-22.032 22.032-17.814-17.813c-.744 2.321-1.346 4.683-1.719 7.147l15.1 15.099-15.804 15.804v8.866l20.237-20.237z" fill="#dfde39" data-original="#258dcd" class=""></path><path d="m424.744 290.249 9.171 9.171v-8.866l-4.738-4.738z" fill="#dfde39" data-original="#258dcd" class=""></path><path d="m195.425 60.93-22.041 22.041 4.433 4.434 22.041-22.042 22.043 22.043 4.433-4.433-22.042-22.043 22.032-22.032-4.433-4.433-22.033 22.032-22.03-22.031-4.433 4.434z" fill="#dfde39" data-original="#258dcd" class=""></path><path d="m424.744 189.709 9.171 9.171v-8.866l-4.738-4.738z" fill="#dfde39" data-original="#258dcd" class=""></path><path d="m295.965 60.93-22.041 22.041 4.433 4.434 22.041-22.042 22.043 22.043 4.433-4.433-22.043-22.043 22.032-22.032-4.433-4.433-22.032 22.032-22.03-22.031-4.433 4.434z" fill="#dfde39" data-original="#258dcd" class=""></path><path d="m396.505 60.93-22.04 22.04 4.433 4.433 22.04-22.04 22.043 22.043 4.433-4.433-22.043-22.043 20.699-20.699 7.314 7.314c-.462-4.043-1.313-7.951-2.745-11.611l-.136-.136.072-.072c-.819-2.067-1.872-3.989-2.968-5.898l-1.537 1.537-21.772-21.772c-.127-.049-.266-.073-.395-.122l-4.297 4.297 22.031 22.031-20.699 20.699-22.031-22.031-4.433 4.433z" fill="#dfde39" data-original="#258dcd" class=""></path><path d="m429.177 84.736-4.433 4.433 9.171 9.171v-8.866z" fill="#dfde39" data-original="#258dcd" class=""></path><path d="m401.211 8.637c-2.748-.86-5.583-1.451-8.525-1.788l5.157 5.156z" fill="#dfde39" data-original="#258dcd" class=""></path><path d="m427.413 441.06-4.44-4.439-22.035 22.035-22.034-22.033-4.433 4.433 22.034 22.034-22.038 22.038 4.439 4.439 22.038-22.038 26.469 26.471 4.433-4.433-26.469-26.471z" fill="#dfde39" data-original="#258dcd" class=""></path><path d="m352.268 507.327h8.88l15.995-15.997-4.44-4.439z" fill="#dfde39" data-original="#258dcd" class=""></path><path d="m429.176 439.297 4.739-4.741v-8.877l-9.178 9.179z" fill="#dfde39" data-original="#258dcd" class=""></path><path d="m251.728 507.327h8.866l16.003-16.003-4.433-4.433z" fill="#dfde39" data-original="#258dcd" class=""></path><path d="m429.17 338.751 4.745-4.745v-8.866l-9.178 9.178z" fill="#dfde39" data-original="#258dcd" class=""></path><path d="m422.973 336.081-22.035 22.036-22.03-22.031-4.434 4.433 22.031 22.031-22.038 22.038 4.433 4.433 22.038-22.038 22.04 22.04 4.433-4.434-22.04-22.039 22.035-22.035z" fill="#dfde39" data-original="#258dcd" class=""></path><path d="m278.359 389.023 22.039-22.04 22.043 22.043 4.433-4.433-22.043-22.043 22.034-22.034-4.433-4.433-22.034 22.034-22.03-22.031-4.433 4.433 22.03 22.031-22.04 22.039z" fill="#dfde39" data-original="#258dcd" class=""></path><path d="m429.168 238.213 4.747-4.747v-8.866l-9.18 9.18z" fill="#dfde39" data-original="#258dcd" class=""></path><path d="m151.188 507.327h8.866l16.006-16.006-4.433-4.433z" fill="#dfde39" data-original="#258dcd" class=""></path><path d="m422.972 235.543-22.034 22.034-22.03-22.031-4.434 4.433 22.031 22.031-22.04 22.04 4.433 4.433 22.04-22.04 22.043 22.043 4.433-4.433-22.043-22.043 22.034-22.034z" fill="#dfde39" data-original="#258dcd" class=""></path><path d="m350.668 316.713 22.043 22.043 4.433-4.433-22.043-22.043 22.034-22.034-4.433-4.433-22.034 22.034-22.03-22.031-4.433 4.433 22.03 22.031-22.04 22.04 4.433 4.433z" fill="#dfde39" data-original="#258dcd" class=""></path><path d="m177.819 389.023 22.039-22.04 22.043 22.043 4.433-4.433-22.042-22.043 22.033-22.034-4.433-4.433-22.034 22.034-22.03-22.031-4.433 4.433 22.03 22.031-22.039 22.039z" fill="#dfde39" data-original="#258dcd" class=""></path><path d="m278.359 288.483 22.039-22.04 22.043 22.043 4.433-4.433-22.043-22.043 22.034-22.034-4.433-4.433-22.034 22.034-22.03-22.031-4.433 4.433 22.03 22.031-22.04 22.04z" fill="#dfde39" data-original="#258dcd" class=""></path><path d="m372.702 185.273-22.034 22.034-22.03-22.031-4.433 4.433 22.03 22.031-22.04 22.04 4.433 4.433 22.04-22.04 22.043 22.043 4.433-4.433-22.043-22.043 22.034-22.034z" fill="#dfde39" data-original="#258dcd" class=""></path><path d="m422.972 135.003-22.034 22.034-22.03-22.031-4.434 4.433 22.031 22.031-22.04 22.04 4.433 4.433 22.04-22.04 22.043 22.043 4.433-4.433-22.043-22.043 22.034-22.034z" fill="#dfde39" data-original="#258dcd" class=""></path><path d="m250.128 316.713 22.043 22.043 4.433-4.433-22.043-22.043 22.034-22.034-4.433-4.433-22.034 22.034-22.03-22.031-4.433 4.433 22.03 22.031-22.039 22.04 4.433 4.433z" fill="#dfde39" data-original="#258dcd" class=""></path><path d="m429.168 137.673 4.747-4.747v-8.866l-9.18 9.18z" fill="#dfde39" data-original="#258dcd" class=""></path><path d="m127.549 338.753 22.04-22.04 22.042 22.043 4.433-4.433-22.042-22.043 22.033-22.034-4.433-4.433-22.033 22.034-22.031-22.031-4.433 4.433 22.03 22.031-22.039 22.04z" fill="#dfde39" data-original="#258dcd" class=""></path><path d="m300.398 157.037-22.03-22.031-4.433 4.433 22.03 22.031-22.04 22.04 4.434 4.433 22.039-22.04 22.043 22.043 4.433-4.433-22.043-22.043 22.034-22.034-4.433-4.433z" fill="#dfde39" data-original="#258dcd" class=""></path><path d="m177.819 288.483 22.039-22.04 22.043 22.043 4.433-4.433-22.042-22.043 22.033-22.034-4.433-4.433-22.034 22.034-22.03-22.031-4.433 4.433 22.03 22.031-22.039 22.04z" fill="#dfde39" data-original="#258dcd" class=""></path><path d="m250.128 216.173 22.043 22.043 4.433-4.433-22.043-22.043 22.034-22.034-4.433-4.433-22.034 22.034-22.03-22.031-4.433 4.433 22.03 22.031-22.039 22.04 4.433 4.433z" fill="#dfde39" data-original="#258dcd" class=""></path><path d="m328.628 137.673 22.04-22.04 22.043 22.043 4.433-4.433-22.043-22.043 22.034-22.034-4.433-4.433-22.034 22.034-22.03-22.031-4.433 4.433 22.03 22.031-22.04 22.04z" fill="#dfde39" data-original="#258dcd" class=""></path><path d="m328.627 37.135 22.041-22.042 22.043 22.043 4.433-4.433-22.043-22.043 4.343-4.342h-8.685l-.091-.091-.09.091h-8.686l4.343 4.342-22.041 22.042z" fill="#dfde39" data-original="#258dcd" class=""></path><path d="m199.858 157.037-22.03-22.031-4.433 4.433 22.03 22.031-22.041 22.041 4.433 4.433 22.041-22.041 22.043 22.043 4.433-4.433-22.042-22.043 22.032-22.032-4.433-4.433z" fill="#dfde39" data-original="#258dcd" class=""></path><path d="m228.087 137.674 22.041-22.041 22.043 22.043 4.433-4.433-22.043-22.043 22.033-22.032-4.433-4.433-22.033 22.032-22.03-22.031-4.433 4.433 22.03 22.031-22.041 22.041z" fill="#dfde39" data-original="#258dcd" class=""></path><path d="m127.547 238.214 22.042-22.041 22.042 22.043 4.433-4.433-22.042-22.043 22.032-22.032-4.433-4.433-22.032 22.032-22.031-22.031-4.433 4.433 22.03 22.031-22.041 22.041z" fill="#dfde39" data-original="#258dcd" class=""></path><path d="m228.087 37.135 22.041-22.042 22.043 22.043 4.433-4.433-22.043-22.043 4.343-4.342h-8.685-.181-8.685l4.342 4.342-22.041 22.042z" fill="#dfde39" data-original="#258dcd" class=""></path><path d="m127.547 137.674 22.042-22.041 22.042 22.043 4.433-4.433-22.042-22.043 22.032-22.032-4.433-4.433-22.032 22.032-22.031-22.031-4.433 4.433 22.03 22.031-22.041 22.041z" fill="#dfde39" data-original="#258dcd" class=""></path><path d="m127.547 37.135 22.042-22.042 22.042 22.043 4.433-4.433-22.042-22.043 4.342-4.342h-8.685-.181-8.685l4.342 4.342-22.041 22.042z" fill="#dfde39" data-original="#258dcd" class=""></path></g><g fill="#e0433a"><path d="m404.039 9.335-.136.136c.129.049.268.073.395.122z" fill="#023aa9" data-original="#e0433a" class=""></path><path d="m250.128 6.227-.09.091h.181z" fill="#023aa9" data-original="#e0433a" class=""></path><path d="m429.177 84.736 4.738-4.738v-3.527l-6.501 6.501-4.433 4.433-22.04 22.04-22.043-22.043-4.433-4.433-22.031-22.031 22.04-22.04 4.433-4.433 20.699-20.699 4.297-4.297c-.872-.332-1.794-.554-2.693-.834l-3.368 3.368-20.699 20.699-4.433 4.433-22.04 22.04-22.044-22.041-4.433-4.433-22.031-22.031 4.353-4.353h-3.527l-2.59 2.59-2.589-2.59h-3.528l4.353 4.353-22.032 22.032-4.433 4.433-22.039 22.042-22.043-22.043-4.433-4.433-22.031-22.031 4.353-4.353h-3.527l-2.59 2.59-2.59-2.59h-3.527l4.353 4.353-22.032 22.032-4.433 4.433-22.04 22.042-22.043-22.043-4.433-4.433-24.415-24.211-.462-.464-1.564 1.564c-.084.054-.176.087-.259.141l.06.058 24.877 24.676 4.433 4.433 22.043 22.043-22.032 22.032-4.433 4.433-22.042 22.041-20.238-20.238v3.527l18.475 18.475-18.475 18.475v3.527l20.238-20.238 22.031 22.031 4.433 4.433 22.043 22.043-22.032 22.032-4.433 4.433-22.042 22.04-20.238-20.238v3.527l18.475 18.475-18.475 18.475v3.527l20.238-20.238 22.031 22.031 4.433 4.433 22.044 22.041-22.034 22.034-4.433 4.433-22.04 22.04-20.24-20.238v3.527l18.476 18.475-18.476 18.476v3.527l20.24-20.24 22.031 22.031 4.433 4.433 22.043 22.043-22.034 22.034-4.433 4.433-22.037 22.037-20.243-20.241v3.527l18.479 18.478-18.479 18.479v3.527l20.243-20.243 22.031 22.031 4.433 4.433 22.043 22.043-22.037 22.037-4.439 4.439-14.02 14.02c.853.364 1.788.548 2.665.862l13.119-13.119 4.439-4.439 22.037-22.037 22.032 22.029 4.433 4.433 16.006 16.006h3.527l-17.769-17.769-4.433-4.433-22.032-22.029 22.037-22.037 4.433-4.433 22.034-22.034 22.031 22.031 4.433 4.433 22.043 22.043-22.034 22.034-4.433 4.433-17.761 17.761h3.527l15.998-15.998 4.433-4.433 22.034-22.034 22.032 22.029 4.433 4.433 16.003 16.003h3.527l-17.766-17.766-4.433-4.433-22.032-22.029 22.04-22.04 4.433-4.433 22.034-22.034 22.032 22.029 4.433 4.433 22.04 22.04-22.035 22.035-4.433 4.433-17.766 17.764h3.527l16.003-16.001 4.433-4.433 22.035-22.035 22.034 22.034 4.439 4.439 15.473 15.473c1.065-.119 2.161-.133 3.204-.323l-16.913-16.913-4.439-4.439-22.034-22.034 22.038-22.038 4.433-4.433 22.035-22.035 22.034 22.034 4.439 4.439 6.503 6.503v-3.527l-4.739-4.739-4.439-4.439-22.034-22.034 22.038-22.038 4.433-4.433 4.741-4.739v-3.527l-6.504 6.503-4.433 4.433-22.038 22.038-22.04-22.04-4.433-4.433-22.032-22.029 22.04-22.04 4.433-4.433 22.034-22.034 22.032 22.029 4.433 4.433 6.509 6.51v-3.527l-4.745-4.747-4.433-4.433-22.032-22.029 22.04-22.04 4.433-4.433 4.738-4.738v-3.527l-6.501 6.501-4.433 4.433-22.04 22.04-22.043-22.043-4.433-4.433-22.031-22.031 22.04-22.04 4.433-4.433 22.034-22.034 22.031 22.031 4.433 4.433 6.51 6.509v-3.527l-4.747-4.745-4.433-4.433-22.031-22.031 22.04-22.04 4.433-4.433 4.738-4.738v-3.527l-6.501 6.501-4.433 4.433-22.04 22.04-22.043-22.043-4.433-4.433-22.031-22.031 22.04-22.04 4.433-4.433 22.034-22.034 22.031 22.031 4.433 4.433 6.51 6.51v-3.527l-4.747-4.747-4.433-4.433-22.031-22.031 22.04-22.04zm-155.242-45.836 4.433-4.433 22.032-22.033 22.031 22.031 4.433 4.433 22.044 22.041-22.034 22.034-4.433 4.433-22.04 22.04-22.044-22.041-4.433-4.433-22.031-22.031zm-52.044 96.105 4.433 4.433 22.044 22.041-22.034 22.034-4.433 4.433-22.04 22.04-22.044-22.041-4.433-4.433-22.031-22.031 22.041-22.041 4.433-4.433 22.032-22.032zm-20.268-23.794 22.041-22.041 4.433-4.433 22.032-22.032 22.031 22.031 4.433 4.433 22.044 22.041-22.034 22.034-4.433 4.433-22.04 22.04-22.044-22.041-4.433-4.433zm48.508 52.032 22.031 22.031 4.433 4.433 22.043 22.043-22.034 22.034-4.433 4.433-22.04 22.04-22.043-22.043-4.433-4.433-22.031-22.031 22.04-22.04 4.433-4.433zm-28.239 72.3 4.433 4.433 22.043 22.043-22.034 22.034-4.433 4.433-22.04 22.04-22.043-22.043-4.433-4.433-22.031-22.031 22.04-22.04 4.433-4.433 22.034-22.034zm6.197 103.21-4.433-4.433-22.031-22.031 22.04-22.04 4.433-4.433 22.034-22.034 22.031 22.031 4.433 4.433 22.043 22.043-22.034 22.034-4.433 4.433-22.04 22.04zm20.279 23.806-22.034 22.034-4.433 4.433-22.04 22.04-22.043-22.043-4.433-4.433-22.031-22.031 22.04-22.04 4.433-4.433 22.034-22.034 22.031 22.031 4.433 4.433zm25.567-22.04 4.433-4.433 22.034-22.034 22.031 22.031 4.433 4.433 22.043 22.043-22.034 22.034-4.433 4.433-22.04 22.04-22.043-22.043-4.433-4.433-22.031-22.031zm4.424-52.036-4.433-4.433-22.031-22.031 22.04-22.04 4.433-4.433 22.034-22.034 22.031 22.031 4.433 4.433 22.043 22.043-22.034 22.034-4.433 4.433-22.04 22.04zm0-100.54-4.433-4.433-22.031-22.031 22.04-22.04 4.433-4.433 22.034-22.034 22.031 22.031 4.433 4.433 22.043 22.043-22.034 22.034-4.433 4.433-22.04 22.04zm-104.964-149.043 4.433-4.433 22.032-22.032 22.031 22.031 4.433 4.433 22.043 22.043-22.032 22.032-4.433 4.433-22.041 22.041-22.043-22.043-4.433-4.433-22.031-22.031zm-45.848 98.774-4.433-4.433-22.031-22.031 22.041-22.041 4.433-4.433 22.032-22.032 22.031 22.031 4.433 4.433 22.043 22.043-22.032 22.032-4.433 4.433-22.041 22.041zm0 100.54-4.433-4.433-22.031-22.031 22.041-22.041 4.433-4.433 22.032-22.032 22.031 22.031 4.433 4.433 22.044 22.041-22.034 22.034-4.433 4.433-22.04 22.04zm.002 100.539-4.433-4.433-22.031-22.031 22.04-22.04 4.433-4.433 22.034-22.034 22.031 22.031 4.433 4.433 22.043 22.043-22.034 22.034-4.433 4.433-22.04 22.04zm48.515 96.109-4.433 4.433-22.037 22.037-22.043-22.043-4.433-4.433-22.031-22.031 22.037-22.037 4.433-4.433 22.034-22.034 22.031 22.031 4.433 4.433 22.043 22.043zm100.54 0-4.433 4.433-22.04 22.04-22.043-22.043-4.433-4.433-22.031-22.031 22.04-22.04 4.433-4.433 22.034-22.034 22.031 22.031 4.433 4.433 22.043 22.043zm96.099-48.511 4.433 4.433 22.04 22.04-22.035 22.035-4.433 4.433-22.038 22.038-22.04-22.04-4.433-4.433-22.032-22.029 22.04-22.04 4.433-4.433 22.034-22.034zm-.001-100.538 4.433 4.433 22.043 22.043-22.034 22.034-4.433 4.433-22.04 22.04-22.043-22.043-4.433-4.433-22.031-22.031 22.04-22.04 4.433-4.433 22.034-22.034zm0-100.54 4.433 4.433 22.043 22.043-22.034 22.034-4.433 4.433-22.04 22.04-22.043-22.043-4.433-4.433-22.031-22.031 22.04-22.04 4.433-4.433 22.034-22.034zm4.442-52.03-4.433 4.433-22.04 22.04-22.043-22.043-4.433-4.433-22.031-22.031 22.04-22.04 4.433-4.433 22.034-22.034 22.031 22.031 4.433 4.433 22.043 22.043z" fill="#023aa9" data-original="#e0433a" class=""></path><path d="m149.589 6.227-.091.091h.181z" fill="#023aa9" data-original="#e0433a" class=""></path></g></g><g><path d="m419.457 513.551h-325.918c-11.429 0-20.727-9.297-20.727-20.727v-472.093c.001-11.43 9.298-20.731 20.727-20.731h325.918c11.429 0 20.731 9.301 20.731 20.731v472.094c-.001 11.429-9.302 20.726-20.731 20.726zm-325.918-501.01c-4.515 0-8.186 3.674-8.186 8.189v472.094c0 4.515 3.67 8.186 8.186 8.186h325.918c4.515 0 8.189-3.67 8.189-8.186v-472.093c0-4.515-3.674-8.189-8.189-8.189h-325.918z" fill="#001775" data-original="#4e6e79" class=""></path></g></g></g></svg>