

<svg xmlns="http://www.w3.org/2000/svg" version="1.1" xmlns:xlink="http://www.w3.org/1999/xlink" xmlns:svgjs="http://svgjs.com/svgjs" width="512" height="512" x="0" y="0" viewBox="0 0 492.949 492.949" style="enable-background:new 0 0 512 512" xml:space="preserve" class=""><g><g xmlns="http://www.w3.org/2000/svg"><path d="m296.272 357.541 7.333 13.408c.585 1.069 1.464 1.948 2.533 2.533l13.408 7.333c4.419 2.417 4.419 8.763 0 11.18l-13.408 7.333c-1.069.585-1.948 1.464-2.533 2.533l-7.333 13.408c-2.417 4.419-8.763 4.419-11.18 0l-7.333-13.408c-.585-1.069-1.464-1.948-2.533-2.533l-13.408-7.333c-4.419-2.417-4.419-8.763 0-11.18l13.408-7.333c1.069-.585 1.948-1.464 2.533-2.533l7.333-13.408c2.416-4.419 8.763-4.419 11.18 0z" fill="#fedba6" data-original="#fedba6" class=""></path><path d="m323.087 195.976 22.449-14.11c4.488-2.821 8.111-6.825 10.47-11.573l10.874-21.88 122.835-124.094c4.385-4.593 4.301-11.846-.189-16.336-4.475-4.475-11.699-4.575-16.297-.227l-222.626 207.262c-1.389 1.293-3.051 2.256-4.864 2.817l-6.434 1.992c-9.978 3.088-18.476 9.728-23.888 18.661l-13.873 22.903-76.978 72.813 5.259 26.259 27.961 6.961 29.877-31.295c2.856-2.992 5.213-6.424 6.978-10.164l.571-1.209c3.639-7.71 9.732-13.996 17.324-17.874l.126-.064c3.857-1.971 7.355-4.577 10.346-7.71z" fill="#d6694b" data-original="#d6694b" class=""></path><path d="m20.831 479.921-12.363-12.364c-11.291-11.291-11.291-29.596 0-40.887l94.51-94.51c5.398-5.398 14.149-5.398 19.547 0l33.703 33.703c5.398 5.398 5.398 14.149 0 19.547l-94.51 94.51c-11.29 11.291-29.596 11.291-40.887.001z" fill="#a74b30" data-original="#a74b30" class=""></path><path d="m102.978 332.161-5.226 5.227.344.344c20.935 20.935 20.935 54.878 0 75.813l-66.377 66.377c-1.674 1.675-3.506 3.094-5.443 4.272 11.125 6.764 25.827 5.344 35.443-4.272l94.51-94.51c5.398-5.398 5.398-14.149 0-19.547l-33.703-33.703c-5.399-5.399-14.15-5.399-19.548-.001z" fill="#8c3d27" data-original="#8c3d27" class=""></path><g fill="#fbc56d"><path d="m245.51 77.302c-.495 0-.997-.049-1.5-.151-4.06-.824-6.682-4.783-5.858-8.842l.605-2.982c.824-4.059 4.784-6.68 8.842-5.858 4.06.824 6.682 4.783 5.858 8.842l-.605 2.982c-.722 3.556-3.849 6.009-7.342 6.009z" fill="#fbc56d" data-original="#fbc56d" class=""></path><path d="m258.837 93.402c-.495 0-.997-.049-1.5-.151l-2.982-.605c-4.06-.824-6.682-4.783-5.858-8.842.825-4.059 4.785-6.681 8.842-5.858l2.982.605c4.06.824 6.682 4.783 5.858 8.842-.722 3.555-3.849 6.009-7.342 6.009z" fill="#fbc56d" data-original="#fbc56d" class=""></path><path d="m239.756 106.123c-.495 0-.996-.049-1.5-.151-4.059-.824-6.682-4.783-5.858-8.842l.605-2.982c.824-4.059 4.779-6.68 8.842-5.858 4.059.824 6.682 4.783 5.858 8.842l-.605 2.982c-.722 3.556-3.849 6.009-7.342 6.009z" fill="#fbc56d" data-original="#fbc56d" class=""></path><path d="m230.016 87.647c-.495 0-.997-.049-1.5-.151l-2.982-.605c-4.06-.824-6.682-4.783-5.858-8.842.825-4.059 4.786-6.681 8.842-5.858l2.982.605c4.06.824 6.682 4.783 5.858 8.842-.722 3.556-3.849 6.009-7.342 6.009z" fill="#fbc56d" data-original="#fbc56d" class=""></path><path d="m445.297 264.354c-.495 0-.996-.049-1.5-.151-4.059-.824-6.682-4.783-5.858-8.842l.605-2.982c.824-4.059 4.781-6.679 8.842-5.858 4.059.824 6.682 4.783 5.858 8.842l-.605 2.982c-.722 3.556-3.849 6.009-7.342 6.009z" fill="#fbc56d" data-original="#fbc56d" class=""></path><path d="m458.624 280.453c-.495 0-.997-.049-1.5-.151l-2.982-.605c-4.06-.824-6.682-4.783-5.858-8.842s4.784-6.68 8.842-5.858l2.982.605c4.06.824 6.682 4.783 5.858 8.842-.722 3.556-3.849 6.009-7.342 6.009z" fill="#fbc56d" data-original="#fbc56d" class=""></path><path d="m439.542 293.175c-.495 0-.996-.049-1.5-.151-4.059-.824-6.682-4.783-5.858-8.842l.605-2.982c.824-4.059 4.78-6.68 8.842-5.858 4.059.824 6.682 4.783 5.858 8.842l-.605 2.982c-.721 3.555-3.848 6.009-7.342 6.009z" fill="#fbc56d" data-original="#fbc56d" class=""></path><path d="m429.803 274.699c-.495 0-.997-.049-1.5-.151l-2.982-.605c-4.06-.824-6.682-4.783-5.858-8.842.825-4.059 4.785-6.68 8.842-5.858l2.982.605c4.06.824 6.682 4.783 5.858 8.842-.722 3.555-3.849 6.009-7.342 6.009z" fill="#fbc56d" data-original="#fbc56d" class=""></path></g></g></g></svg>